<?xml version="1.0" encoding="utf-8"?>
<!-- Generator: Adobe Illustrator 23.0.2, SVG Export Plug-In . SVG Version: 6.00 Build 0)  -->
<svg version="1.1" id="Layer_1" xmlns="http://www.w3.org/2000/svg" xmlns:xlink="http://www.w3.org/1999/xlink" x="0px" y="0px"
	 viewBox="0 0 1074.4 456.4" style="enable-background:new 0 0 1074.4 456.4;" xml:space="preserve">
<style type="text/css">
	.st0{fill:#9E9E9E;}
	.st1{fill:#CECECE;}
	.st2{fill:#FFFFFF;stroke:#9E9E9E;stroke-width:4;stroke-miterlimit:10;}
	.st3{fill:none;stroke:#9E9E9E;stroke-width:4;stroke-linecap:round;stroke-miterlimit:10;}
</style>
<g>
	<g>
		<g>
			<g>
				<rect x="254" y="69.9" class="st0" width="566" height="6"/>
				<g>
					<path class="st1" d="M743.6,54.3c0,1.7-1.4,3-3,3h-395c-1.6,0-3-1.3-3-3v-14c0-1.6,1.4-3,3-3h394.9c1.6,0,3,1.4,3,3L743.6,54.3
						L743.6,54.3z"/>
				</g>
				<g>
					<path class="st1" d="M802.5,54.3c0,1.7-1.3,3-3,3h-39.8c-1.7,0-3-1.3-3-3v-14c0-1.6,1.3-3,3-3h39.8c1.7,0,3,1.4,3,3V54.3z"/>
				</g>
				<path class="st1" d="M285.4,47.3c0,3.8-3.1,6.9-6.9,6.9s-6.9-3.1-6.9-6.9c0-3.8,3.1-6.9,6.9-6.9
					C282.3,40.3,285.4,43.4,285.4,47.3z"/>
				<path class="st1" d="M305.8,47.3c0,3.8-3.1,6.9-6.9,6.9s-6.9-3.1-6.9-6.9c0-3.8,3.1-6.9,6.9-6.9
					C302.7,40.3,305.8,43.4,305.8,47.3z"/>
				<path class="st1" d="M326.2,47.3c0,3.8-3.1,6.9-6.9,6.9s-6.9-3.1-6.9-6.9c0-3.8,3.1-6.9,6.9-6.9
					C323.2,40.3,326.2,43.4,326.2,47.3z"/>
			</g>
			<path class="st2" d="M635,330.6H443.4V127.8c0-8.4,6.8-15.1,15.1-15.1h161.3c8.4,0,15.1,6.8,15.1,15.1v202.8H635z"/>
			<g>
				<g>
					<line class="st3" x1="509.4" y1="196.5" x2="481" y2="171.4"/>
					<line class="st3" x1="507.7" y1="169.8" x2="482.7" y2="198.2"/>
				</g>
				<g>
					<line class="st3" x1="597.4" y1="196.5" x2="569" y2="171.4"/>
					<line class="st3" x1="595.7" y1="169.8" x2="570.7" y2="198.2"/>
				</g>
			</g>
			<path class="st0" d="M508.8,273.6c-0.4,0-0.9-0.1-1.3-0.4c-1.2-0.7-1.5-2.2-0.8-3.4c7-11.4,19.2-18.2,32.6-18.2
				c13.2,0,25.2,6.6,32.3,17.8c0.7,1.1,0.4,2.7-0.8,3.4c-1.2,0.7-2.7,0.4-3.4-0.8c-6.1-9.7-16.7-15.5-28.2-15.5
				c-11.6,0-22.2,5.9-28.4,15.8C510.4,273.2,509.6,273.6,508.8,273.6z"/>
		</g>
		<g>
			<path class="st0" d="M538,351.8c1,0,1.9-0.4,2.5-1c0.7-0.7,1.1-1.6,1.1-2.6c0-0.2,0-0.5-0.1-0.7c0-0.2-0.1-0.5-0.2-0.7
				c-0.1-0.2-0.2-0.4-0.3-0.6s-0.3-0.4-0.5-0.5c-0.8-0.8-2.1-1.2-3.3-1c-0.2,0.1-0.5,0.1-0.7,0.2s-0.4,0.2-0.6,0.3
				c-0.2,0.1-0.4,0.3-0.5,0.5c-0.2,0.2-0.3,0.3-0.5,0.5c-0.1,0.2-0.3,0.4-0.3,0.6c-0.1,0.2-0.2,0.4-0.2,0.7
				c-0.1,0.2-0.1,0.5-0.1,0.7c0,1,0.4,1.9,1.1,2.6S537,351.8,538,351.8z"/>
			<path class="st0" d="M1044.9,430.1h-65.4c4.3-14.7,16.8-60.1,16.8-90.1c0-2-1.6-3.6-3.6-3.6h-14.6l6.9-77.9
				c0.2-1.8-1.1-3.4-2.8-3.7c-1.8-0.4-3.5,0.7-4,2.4L959,319.9l-1.7-33.8c-0.1-1.7-1.4-3.1-3.2-3.3c-1.7-0.2-3.3,1-3.7,2.7
				l-10.9,44.4l-28.6-58.4c-0.8-1.6-2.5-2.3-4.2-1.8s-2.7,2.2-2.4,3.9l9.9,62.9h-17.6c-2,0-3.6,1.6-3.6,3.6
				c0,30,12.5,75.4,16.8,90.1h-83.1c-2-18-18.8-32.1-39.2-32.1s-37.2,14.1-39.2,32.1H617c-20.4-10.5-33-31.2-33-54.1V372h217
				c14.3,0,25.9-11.6,25.9-25.9V42.7c0-14.3-11.6-25.9-25.9-25.9H275c-14.3,0-25.9,11.6-25.9,25.9V346c0,14.3,11.6,25.9,25.9,25.9
				h217v4.1c0,23-12.6,43.6-33,54.1H230.5c0-0.3,0-0.6-0.1-1l-29.1-110.9c-0.2-0.9-0.8-1.7-1.7-2.2c-0.8-0.5-1.8-0.6-2.7-0.4
				l-9.3,2.4c-0.4-1.5-1.8-2.6-3.5-2.6H170c-2,0-3.6,1.6-3.6,3.6v5.9h-23.1v-45.4c0-2-1.6-3.6-3.6-3.6h-24.6v-10.2
				c0-2-1.6-3.6-3.6-3.6H83.3c-2,0-3.6,1.6-3.6,3.6v164.4H31.1c-2,0-3.6,1.6-3.6,3.6s1.6,3.6,3.6,3.6h1013.8c2,0,3.6-1.6,3.6-3.6
				C1048.5,431.8,1046.9,430.1,1044.9,430.1z M971.1,336.4h-9.8l13.8-45.1L971.1,336.4z M951.5,310.2l1.3,26.2H945L951.5,310.2z
				 M914.8,295.4l20.1,41h-13.6L914.8,295.4z M989.1,343.6c-0.1,3.1-0.3,6.4-0.7,9.8h-87.5c-0.3-3.4-0.6-6.7-0.7-9.8H989.1z
				 M783.9,405.4v6.1c0,2,1.6,3.6,3.6,3.6s3.6-1.6,3.6-3.6v-6.1c14.7,1.5,26.5,11.7,28.3,24.7h-63.9
				C757.4,417.2,769.1,406.9,783.9,405.4z M275,24h526c10.3,0,18.7,8.4,18.7,18.7v283.6H256.3V42.7C256.3,32.4,264.7,24,275,24z
				 M256.3,346v-12.5h563.4V346c0,10.3-8.4,18.7-18.7,18.7H275C264.7,364.7,256.3,356.3,256.3,346z M173.7,337.8h6.9v6.1h-6.9V337.8
				z M187.8,350.8l20.8,79.4h-20.8V350.8z M195.3,323.5l27.2,104l-6.7,1.7l-27.2-104L195.3,323.5z M173.7,322.7h6.9v7.9h-6.9V322.7z
				 M166.5,332.2v21.6h-23.1v-21.6H166.5z M107.9,324.9h-21v-27.1h21V324.9z M86.9,332.1h21v85.6h-21V332.1z M115.1,351.1h21v45.8
				h-21C115.1,396.9,115.1,351.1,115.1,351.1z M136.1,283.1v60.7h-21v-60.7H136.1z M107.9,269.4v21.2h-21v-21.2H107.9z M86.9,424.9
				h21v5.2h-21V424.9z M115.1,404.2h21v26h-21C115.1,430.2,115.1,404.2,115.1,404.2z M143.3,361h23.1v69.1h-23.1V361z M173.7,430.1
				v-79h6.9v79H173.7z M472.5,430.1c16.7-12.7,26.7-32.5,26.7-54.1v-4.1h77.5v4.1c0,21.6,10,41.4,26.7,54.1H472.5z M917.3,430.1
				c-2.7-9.2-11.9-41.6-15.6-69.6h85.9c-3.7,28.1-12.9,60.5-15.6,69.6H917.3z"/>
		</g>
	</g>
</g>
</svg>
